<svg xmlns="http://www.w3.org/2000/svg" xmlns:xlink="http://www.w3.org/1999/xlink" width="596.064" height="223" viewBox="0 0 596.064 223">
  <defs>
    <clipPath id="clip-path">
      <rect width="596.064" height="223" fill="none"/>
    </clipPath>
  </defs>
  <g id="about-effect" opacity="0.11" clip-path="url(#clip-path)">
    <g transform="translate(-185.999 -178.5)">
      <path id="Caminho_13" data-name="Caminho 13" d="M1262.6,448.335l4.778,8.276a1.06,1.06,0,0,1,0,1.06l-4.778,8.276a1.06,1.06,0,0,0,.918,1.59h9.557a1.06,1.06,0,0,0,.918-.53l5.39-9.336a1.06,1.06,0,0,0,0-1.06l-5.39-9.336a1.06,1.06,0,0,0-.918-.53h-9.557A1.06,1.06,0,0,0,1262.6,448.335Z" transform="translate(-1053.459 -230.245)"/>
    </g>
    <g transform="translate(-130.999 -178.5)">
      <path id="Caminho_13-2" data-name="Caminho 13" d="M1262.6,448.335l4.778,8.276a1.06,1.06,0,0,1,0,1.06l-4.778,8.276a1.06,1.06,0,0,0,.918,1.59h9.557a1.06,1.06,0,0,0,.918-.53l5.39-9.336a1.06,1.06,0,0,0,0-1.06l-5.39-9.336a1.06,1.06,0,0,0-.918-.53h-9.557A1.06,1.06,0,0,0,1262.6,448.335Z" transform="translate(-1053.459 -230.245)"/>
    </g>
    <g transform="translate(-75.999 -178.5)">
      <path id="Caminho_13-3" data-name="Caminho 13" d="M1262.6,448.335l4.778,8.276a1.06,1.06,0,0,1,0,1.06l-4.778,8.276a1.06,1.06,0,0,0,.918,1.59h9.557a1.06,1.06,0,0,0,.918-.53l5.39-9.336a1.06,1.06,0,0,0,0-1.06l-5.39-9.336a1.06,1.06,0,0,0-.918-.53h-9.557A1.06,1.06,0,0,0,1262.6,448.335Z" transform="translate(-1053.459 -230.245)"/>
    </g>
    <g transform="translate(-20.999 -178.5)">
      <path id="Caminho_13-4" data-name="Caminho 13" d="M1262.6,448.335l4.778,8.276a1.06,1.06,0,0,1,0,1.06l-4.778,8.276a1.06,1.06,0,0,0,.918,1.59h9.557a1.06,1.06,0,0,0,.918-.53l5.39-9.336a1.06,1.06,0,0,0,0-1.06l-5.39-9.336a1.06,1.06,0,0,0-.918-.53h-9.557A1.06,1.06,0,0,0,1262.6,448.335Z" transform="translate(-1053.459 -230.245)"/>
    </g>
    <g transform="translate(34.001 -178.5)">
      <path id="Caminho_13-5" data-name="Caminho 13" d="M1262.6,448.335l4.778,8.276a1.06,1.06,0,0,1,0,1.06l-4.778,8.276a1.06,1.06,0,0,0,.918,1.59h9.557a1.06,1.06,0,0,0,.918-.53l5.39-9.336a1.06,1.06,0,0,0,0-1.06l-5.39-9.336a1.06,1.06,0,0,0-.918-.53h-9.557A1.06,1.06,0,0,0,1262.6,448.335Z" transform="translate(-1053.459 -230.245)"/>
    </g>
    <g transform="translate(89.001 -178.5)">
      <path id="Caminho_13-6" data-name="Caminho 13" d="M1262.6,448.335l4.778,8.276a1.06,1.06,0,0,1,0,1.06l-4.778,8.276a1.06,1.06,0,0,0,.918,1.59h9.557a1.06,1.06,0,0,0,.918-.53l5.39-9.336a1.06,1.06,0,0,0,0-1.06l-5.39-9.336a1.06,1.06,0,0,0-.918-.53h-9.557A1.06,1.06,0,0,0,1262.6,448.335Z" transform="translate(-1053.459 -230.245)"/>
    </g>
    <g transform="translate(144.001 -178.5)">
      <path id="Caminho_13-7" data-name="Caminho 13" d="M1262.6,448.335l4.778,8.276a1.06,1.06,0,0,1,0,1.06l-4.778,8.276a1.06,1.06,0,0,0,.918,1.59h9.557a1.06,1.06,0,0,0,.918-.53l5.39-9.336a1.06,1.06,0,0,0,0-1.06l-5.39-9.336a1.06,1.06,0,0,0-.918-.53h-9.557A1.06,1.06,0,0,0,1262.6,448.335Z" transform="translate(-1053.459 -230.245)"/>
    </g>
    <g transform="translate(199.001 -178.5)">
      <path id="Caminho_13-8" data-name="Caminho 13" d="M1262.6,448.335l4.778,8.276a1.06,1.06,0,0,1,0,1.06l-4.778,8.276a1.06,1.06,0,0,0,.918,1.59h9.557a1.06,1.06,0,0,0,.918-.53l5.39-9.336a1.06,1.06,0,0,0,0-1.06l-5.39-9.336a1.06,1.06,0,0,0-.918-.53h-9.557A1.06,1.06,0,0,0,1262.6,448.335Z" transform="translate(-1053.459 -230.245)"/>
    </g>
    <g transform="translate(254.001 -178.5)">
      <path id="Caminho_13-9" data-name="Caminho 13" d="M1262.6,448.335l4.778,8.276a1.06,1.06,0,0,1,0,1.06l-4.778,8.276a1.06,1.06,0,0,0,.918,1.59h9.557a1.06,1.06,0,0,0,.918-.53l5.39-9.336a1.06,1.06,0,0,0,0-1.06l-5.39-9.336a1.06,1.06,0,0,0-.918-.53h-9.557A1.06,1.06,0,0,0,1262.6,448.335Z" transform="translate(-1053.459 -230.245)"/>
    </g>
    <g transform="translate(309.001 -178.5)">
      <path id="Caminho_13-10" data-name="Caminho 13" d="M1262.6,448.335l4.778,8.276a1.06,1.06,0,0,1,0,1.06l-4.778,8.276a1.06,1.06,0,0,0,.918,1.59h9.557a1.06,1.06,0,0,0,.918-.53l5.39-9.336a1.06,1.06,0,0,0,0-1.06l-5.39-9.336a1.06,1.06,0,0,0-.918-.53h-9.557A1.06,1.06,0,0,0,1262.6,448.335Z" transform="translate(-1053.459 -230.245)"/>
    </g>
    <g transform="translate(364.001 -178.5)">
      <path id="Caminho_13-11" data-name="Caminho 13" d="M1262.6,448.335l4.778,8.276a1.06,1.06,0,0,1,0,1.06l-4.778,8.276a1.06,1.06,0,0,0,.918,1.59h9.557a1.06,1.06,0,0,0,.918-.53l5.39-9.336a1.06,1.06,0,0,0,0-1.06l-5.39-9.336a1.06,1.06,0,0,0-.918-.53h-9.557A1.06,1.06,0,0,0,1262.6,448.335Z" transform="translate(-1053.459 -230.245)"/>
    </g>
    <g transform="translate(-185.999 -115.5)">
      <path id="Caminho_13-12" data-name="Caminho 13" d="M1262.6,448.335l4.778,8.276a1.06,1.06,0,0,1,0,1.06l-4.778,8.276a1.06,1.06,0,0,0,.918,1.59h9.557a1.06,1.06,0,0,0,.918-.53l5.39-9.336a1.06,1.06,0,0,0,0-1.06l-5.39-9.336a1.06,1.06,0,0,0-.918-.53h-9.557A1.06,1.06,0,0,0,1262.6,448.335Z" transform="translate(-1053.459 -230.245)"/>
    </g>
    <g transform="translate(-130.999 -115.5)">
      <path id="Caminho_13-13" data-name="Caminho 13" d="M1262.6,448.335l4.778,8.276a1.06,1.06,0,0,1,0,1.06l-4.778,8.276a1.06,1.06,0,0,0,.918,1.59h9.557a1.06,1.06,0,0,0,.918-.53l5.39-9.336a1.06,1.06,0,0,0,0-1.06l-5.39-9.336a1.06,1.06,0,0,0-.918-.53h-9.557A1.06,1.06,0,0,0,1262.6,448.335Z" transform="translate(-1053.459 -230.245)"/>
    </g>
    <g transform="translate(-75.999 -115.5)">
      <path id="Caminho_13-14" data-name="Caminho 13" d="M1262.6,448.335l4.778,8.276a1.06,1.06,0,0,1,0,1.06l-4.778,8.276a1.06,1.06,0,0,0,.918,1.59h9.557a1.06,1.06,0,0,0,.918-.53l5.39-9.336a1.06,1.06,0,0,0,0-1.06l-5.39-9.336a1.06,1.06,0,0,0-.918-.53h-9.557A1.06,1.06,0,0,0,1262.6,448.335Z" transform="translate(-1053.459 -230.245)"/>
    </g>
    <g transform="translate(-20.999 -115.5)">
      <path id="Caminho_13-15" data-name="Caminho 13" d="M1262.6,448.335l4.778,8.276a1.06,1.06,0,0,1,0,1.06l-4.778,8.276a1.06,1.06,0,0,0,.918,1.59h9.557a1.06,1.06,0,0,0,.918-.53l5.39-9.336a1.06,1.06,0,0,0,0-1.06l-5.39-9.336a1.06,1.06,0,0,0-.918-.53h-9.557A1.06,1.06,0,0,0,1262.6,448.335Z" transform="translate(-1053.459 -230.245)"/>
    </g>
    <g transform="translate(34.001 -115.5)">
      <path id="Caminho_13-16" data-name="Caminho 13" d="M1262.6,448.335l4.778,8.276a1.06,1.06,0,0,1,0,1.06l-4.778,8.276a1.06,1.06,0,0,0,.918,1.59h9.557a1.06,1.06,0,0,0,.918-.53l5.39-9.336a1.06,1.06,0,0,0,0-1.06l-5.39-9.336a1.06,1.06,0,0,0-.918-.53h-9.557A1.06,1.06,0,0,0,1262.6,448.335Z" transform="translate(-1053.459 -230.245)"/>
    </g>
    <g transform="translate(89.001 -115.5)">
      <path id="Caminho_13-17" data-name="Caminho 13" d="M1262.6,448.335l4.778,8.276a1.06,1.06,0,0,1,0,1.06l-4.778,8.276a1.06,1.06,0,0,0,.918,1.59h9.557a1.06,1.06,0,0,0,.918-.53l5.39-9.336a1.06,1.06,0,0,0,0-1.06l-5.39-9.336a1.06,1.06,0,0,0-.918-.53h-9.557A1.06,1.06,0,0,0,1262.6,448.335Z" transform="translate(-1053.459 -230.245)"/>
    </g>
    <g transform="translate(144.001 -115.5)">
      <path id="Caminho_13-18" data-name="Caminho 13" d="M1262.6,448.335l4.778,8.276a1.06,1.06,0,0,1,0,1.06l-4.778,8.276a1.06,1.06,0,0,0,.918,1.59h9.557a1.06,1.06,0,0,0,.918-.53l5.39-9.336a1.06,1.06,0,0,0,0-1.06l-5.39-9.336a1.06,1.06,0,0,0-.918-.53h-9.557A1.06,1.06,0,0,0,1262.6,448.335Z" transform="translate(-1053.459 -230.245)"/>
    </g>
    <g transform="translate(199.001 -115.5)">
      <path id="Caminho_13-19" data-name="Caminho 13" d="M1262.6,448.335l4.778,8.276a1.06,1.06,0,0,1,0,1.06l-4.778,8.276a1.06,1.06,0,0,0,.918,1.59h9.557a1.06,1.06,0,0,0,.918-.53l5.39-9.336a1.06,1.06,0,0,0,0-1.06l-5.39-9.336a1.06,1.06,0,0,0-.918-.53h-9.557A1.06,1.06,0,0,0,1262.6,448.335Z" transform="translate(-1053.459 -230.245)"/>
    </g>
    <g transform="translate(254.001 -115.5)">
      <path id="Caminho_13-20" data-name="Caminho 13" d="M1262.6,448.335l4.778,8.276a1.06,1.06,0,0,1,0,1.06l-4.778,8.276a1.06,1.06,0,0,0,.918,1.59h9.557a1.06,1.06,0,0,0,.918-.53l5.39-9.336a1.06,1.06,0,0,0,0-1.06l-5.39-9.336a1.06,1.06,0,0,0-.918-.53h-9.557A1.06,1.06,0,0,0,1262.6,448.335Z" transform="translate(-1053.459 -230.245)"/>
    </g>
    <g transform="translate(309.001 -115.5)">
      <path id="Caminho_13-21" data-name="Caminho 13" d="M1262.6,448.335l4.778,8.276a1.06,1.06,0,0,1,0,1.06l-4.778,8.276a1.06,1.06,0,0,0,.918,1.59h9.557a1.06,1.06,0,0,0,.918-.53l5.39-9.336a1.06,1.06,0,0,0,0-1.06l-5.39-9.336a1.06,1.06,0,0,0-.918-.53h-9.557A1.06,1.06,0,0,0,1262.6,448.335Z" transform="translate(-1053.459 -230.245)"/>
    </g>
    <g transform="translate(364.001 -115.5)">
      <path id="Caminho_13-22" data-name="Caminho 13" d="M1262.6,448.335l4.778,8.276a1.06,1.06,0,0,1,0,1.06l-4.778,8.276a1.06,1.06,0,0,0,.918,1.59h9.557a1.06,1.06,0,0,0,.918-.53l5.39-9.336a1.06,1.06,0,0,0,0-1.06l-5.39-9.336a1.06,1.06,0,0,0-.918-.53h-9.557A1.06,1.06,0,0,0,1262.6,448.335Z" transform="translate(-1053.459 -230.245)"/>
    </g>
    <g transform="translate(-185.999 -52.5)">
      <path id="Caminho_13-23" data-name="Caminho 13" d="M1262.6,448.335l4.778,8.276a1.06,1.06,0,0,1,0,1.06l-4.778,8.276a1.06,1.06,0,0,0,.918,1.59h9.557a1.06,1.06,0,0,0,.918-.53l5.39-9.336a1.06,1.06,0,0,0,0-1.06l-5.39-9.336a1.06,1.06,0,0,0-.918-.53h-9.557A1.06,1.06,0,0,0,1262.6,448.335Z" transform="translate(-1053.459 -230.245)"/>
    </g>
    <g transform="translate(-130.999 -52.5)">
      <path id="Caminho_13-24" data-name="Caminho 13" d="M1262.6,448.335l4.778,8.276a1.06,1.06,0,0,1,0,1.06l-4.778,8.276a1.06,1.06,0,0,0,.918,1.59h9.557a1.06,1.06,0,0,0,.918-.53l5.39-9.336a1.06,1.06,0,0,0,0-1.06l-5.39-9.336a1.06,1.06,0,0,0-.918-.53h-9.557A1.06,1.06,0,0,0,1262.6,448.335Z" transform="translate(-1053.459 -230.245)"/>
    </g>
    <g transform="translate(-75.999 -52.5)">
      <path id="Caminho_13-25" data-name="Caminho 13" d="M1262.6,448.335l4.778,8.276a1.06,1.06,0,0,1,0,1.06l-4.778,8.276a1.06,1.06,0,0,0,.918,1.59h9.557a1.06,1.06,0,0,0,.918-.53l5.39-9.336a1.06,1.06,0,0,0,0-1.06l-5.39-9.336a1.06,1.06,0,0,0-.918-.53h-9.557A1.06,1.06,0,0,0,1262.6,448.335Z" transform="translate(-1053.459 -230.245)"/>
    </g>
    <g transform="translate(-20.999 -52.5)">
      <path id="Caminho_13-26" data-name="Caminho 13" d="M1262.6,448.335l4.778,8.276a1.06,1.06,0,0,1,0,1.06l-4.778,8.276a1.06,1.06,0,0,0,.918,1.59h9.557a1.06,1.06,0,0,0,.918-.53l5.39-9.336a1.06,1.06,0,0,0,0-1.06l-5.39-9.336a1.06,1.06,0,0,0-.918-.53h-9.557A1.06,1.06,0,0,0,1262.6,448.335Z" transform="translate(-1053.459 -230.245)"/>
    </g>
    <g transform="translate(34.001 -52.5)">
      <path id="Caminho_13-27" data-name="Caminho 13" d="M1262.6,448.335l4.778,8.276a1.06,1.06,0,0,1,0,1.06l-4.778,8.276a1.06,1.06,0,0,0,.918,1.59h9.557a1.06,1.06,0,0,0,.918-.53l5.39-9.336a1.06,1.06,0,0,0,0-1.06l-5.39-9.336a1.06,1.06,0,0,0-.918-.53h-9.557A1.06,1.06,0,0,0,1262.6,448.335Z" transform="translate(-1053.459 -230.245)"/>
    </g>
    <g transform="translate(89.001 -52.5)">
      <path id="Caminho_13-28" data-name="Caminho 13" d="M1262.6,448.335l4.778,8.276a1.06,1.06,0,0,1,0,1.06l-4.778,8.276a1.06,1.06,0,0,0,.918,1.59h9.557a1.06,1.06,0,0,0,.918-.53l5.39-9.336a1.06,1.06,0,0,0,0-1.06l-5.39-9.336a1.06,1.06,0,0,0-.918-.53h-9.557A1.06,1.06,0,0,0,1262.6,448.335Z" transform="translate(-1053.459 -230.245)"/>
    </g>
    <g transform="translate(144.001 -52.5)">
      <path id="Caminho_13-29" data-name="Caminho 13" d="M1262.6,448.335l4.778,8.276a1.06,1.06,0,0,1,0,1.06l-4.778,8.276a1.06,1.06,0,0,0,.918,1.59h9.557a1.06,1.06,0,0,0,.918-.53l5.39-9.336a1.06,1.06,0,0,0,0-1.06l-5.39-9.336a1.06,1.06,0,0,0-.918-.53h-9.557A1.06,1.06,0,0,0,1262.6,448.335Z" transform="translate(-1053.459 -230.245)"/>
    </g>
    <g transform="translate(199.001 -52.5)">
      <path id="Caminho_13-30" data-name="Caminho 13" d="M1262.6,448.335l4.778,8.276a1.06,1.06,0,0,1,0,1.06l-4.778,8.276a1.06,1.06,0,0,0,.918,1.59h9.557a1.06,1.06,0,0,0,.918-.53l5.39-9.336a1.06,1.06,0,0,0,0-1.06l-5.39-9.336a1.06,1.06,0,0,0-.918-.53h-9.557A1.06,1.06,0,0,0,1262.6,448.335Z" transform="translate(-1053.459 -230.245)"/>
    </g>
    <g transform="translate(254.001 -52.5)">
      <path id="Caminho_13-31" data-name="Caminho 13" d="M1262.6,448.335l4.778,8.276a1.06,1.06,0,0,1,0,1.06l-4.778,8.276a1.06,1.06,0,0,0,.918,1.59h9.557a1.06,1.06,0,0,0,.918-.53l5.39-9.336a1.06,1.06,0,0,0,0-1.06l-5.39-9.336a1.06,1.06,0,0,0-.918-.53h-9.557A1.06,1.06,0,0,0,1262.6,448.335Z" transform="translate(-1053.459 -230.245)"/>
    </g>
    <g transform="translate(309.001 -52.5)">
      <path id="Caminho_13-32" data-name="Caminho 13" d="M1262.6,448.335l4.778,8.276a1.06,1.06,0,0,1,0,1.06l-4.778,8.276a1.06,1.06,0,0,0,.918,1.59h9.557a1.06,1.06,0,0,0,.918-.53l5.39-9.336a1.06,1.06,0,0,0,0-1.06l-5.39-9.336a1.06,1.06,0,0,0-.918-.53h-9.557A1.06,1.06,0,0,0,1262.6,448.335Z" transform="translate(-1053.459 -230.245)"/>
    </g>
    <g transform="translate(364.001 -52.5)">
      <path id="Caminho_13-33" data-name="Caminho 13" d="M1262.6,448.335l4.778,8.276a1.06,1.06,0,0,1,0,1.06l-4.778,8.276a1.06,1.06,0,0,0,.918,1.59h9.557a1.06,1.06,0,0,0,.918-.53l5.39-9.336a1.06,1.06,0,0,0,0-1.06l-5.39-9.336a1.06,1.06,0,0,0-.918-.53h-9.557A1.06,1.06,0,0,0,1262.6,448.335Z" transform="translate(-1053.459 -230.245)"/>
    </g>
    <g transform="translate(-185.999 10.5)">
      <path id="Caminho_13-34" data-name="Caminho 13" d="M1262.6,448.335l4.778,8.276a1.06,1.06,0,0,1,0,1.06l-4.778,8.276a1.06,1.06,0,0,0,.918,1.59h9.557a1.06,1.06,0,0,0,.918-.53l5.39-9.336a1.06,1.06,0,0,0,0-1.06l-5.39-9.336a1.06,1.06,0,0,0-.918-.53h-9.557A1.06,1.06,0,0,0,1262.6,448.335Z" transform="translate(-1053.459 -230.245)"/>
    </g>
    <g transform="translate(-130.999 10.5)">
      <path id="Caminho_13-35" data-name="Caminho 13" d="M1262.6,448.335l4.778,8.276a1.06,1.06,0,0,1,0,1.06l-4.778,8.276a1.06,1.06,0,0,0,.918,1.59h9.557a1.06,1.06,0,0,0,.918-.53l5.39-9.336a1.06,1.06,0,0,0,0-1.06l-5.39-9.336a1.06,1.06,0,0,0-.918-.53h-9.557A1.06,1.06,0,0,0,1262.6,448.335Z" transform="translate(-1053.459 -230.245)"/>
    </g>
    <g transform="translate(-75.999 10.5)">
      <path id="Caminho_13-36" data-name="Caminho 13" d="M1262.6,448.335l4.778,8.276a1.06,1.06,0,0,1,0,1.06l-4.778,8.276a1.06,1.06,0,0,0,.918,1.59h9.557a1.06,1.06,0,0,0,.918-.53l5.39-9.336a1.06,1.06,0,0,0,0-1.06l-5.39-9.336a1.06,1.06,0,0,0-.918-.53h-9.557A1.06,1.06,0,0,0,1262.6,448.335Z" transform="translate(-1053.459 -230.245)"/>
    </g>
    <g transform="translate(-20.999 10.5)">
      <path id="Caminho_13-37" data-name="Caminho 13" d="M1262.6,448.335l4.778,8.276a1.06,1.06,0,0,1,0,1.06l-4.778,8.276a1.06,1.06,0,0,0,.918,1.59h9.557a1.06,1.06,0,0,0,.918-.53l5.39-9.336a1.06,1.06,0,0,0,0-1.06l-5.39-9.336a1.06,1.06,0,0,0-.918-.53h-9.557A1.06,1.06,0,0,0,1262.6,448.335Z" transform="translate(-1053.459 -230.245)"/>
    </g>
    <g transform="translate(34.001 10.5)">
      <path id="Caminho_13-38" data-name="Caminho 13" d="M1262.6,448.335l4.778,8.276a1.06,1.06,0,0,1,0,1.06l-4.778,8.276a1.06,1.06,0,0,0,.918,1.59h9.557a1.06,1.06,0,0,0,.918-.53l5.39-9.336a1.06,1.06,0,0,0,0-1.06l-5.39-9.336a1.06,1.06,0,0,0-.918-.53h-9.557A1.06,1.06,0,0,0,1262.6,448.335Z" transform="translate(-1053.459 -230.245)"/>
    </g>
    <g transform="translate(89.001 10.5)">
      <path id="Caminho_13-39" data-name="Caminho 13" d="M1262.6,448.335l4.778,8.276a1.06,1.06,0,0,1,0,1.06l-4.778,8.276a1.06,1.06,0,0,0,.918,1.59h9.557a1.06,1.06,0,0,0,.918-.53l5.39-9.336a1.06,1.06,0,0,0,0-1.06l-5.39-9.336a1.06,1.06,0,0,0-.918-.53h-9.557A1.06,1.06,0,0,0,1262.6,448.335Z" transform="translate(-1053.459 -230.245)"/>
    </g>
    <g transform="translate(144.001 10.5)">
      <path id="Caminho_13-40" data-name="Caminho 13" d="M1262.6,448.335l4.778,8.276a1.06,1.06,0,0,1,0,1.06l-4.778,8.276a1.06,1.06,0,0,0,.918,1.59h9.557a1.06,1.06,0,0,0,.918-.53l5.39-9.336a1.06,1.06,0,0,0,0-1.06l-5.39-9.336a1.06,1.06,0,0,0-.918-.53h-9.557A1.06,1.06,0,0,0,1262.6,448.335Z" transform="translate(-1053.459 -230.245)"/>
    </g>
    <g transform="translate(199.001 10.5)">
      <path id="Caminho_13-41" data-name="Caminho 13" d="M1262.6,448.335l4.778,8.276a1.06,1.06,0,0,1,0,1.06l-4.778,8.276a1.06,1.06,0,0,0,.918,1.59h9.557a1.06,1.06,0,0,0,.918-.53l5.39-9.336a1.06,1.06,0,0,0,0-1.06l-5.39-9.336a1.06,1.06,0,0,0-.918-.53h-9.557A1.06,1.06,0,0,0,1262.6,448.335Z" transform="translate(-1053.459 -230.245)"/>
    </g>
    <g transform="translate(254.001 10.5)">
      <path id="Caminho_13-42" data-name="Caminho 13" d="M1262.6,448.335l4.778,8.276a1.06,1.06,0,0,1,0,1.06l-4.778,8.276a1.06,1.06,0,0,0,.918,1.59h9.557a1.06,1.06,0,0,0,.918-.53l5.39-9.336a1.06,1.06,0,0,0,0-1.06l-5.39-9.336a1.06,1.06,0,0,0-.918-.53h-9.557A1.06,1.06,0,0,0,1262.6,448.335Z" transform="translate(-1053.459 -230.245)"/>
    </g>
    <g transform="translate(309.001 10.5)">
      <path id="Caminho_13-43" data-name="Caminho 13" d="M1262.6,448.335l4.778,8.276a1.06,1.06,0,0,1,0,1.06l-4.778,8.276a1.06,1.06,0,0,0,.918,1.59h9.557a1.06,1.06,0,0,0,.918-.53l5.39-9.336a1.06,1.06,0,0,0,0-1.06l-5.39-9.336a1.06,1.06,0,0,0-.918-.53h-9.557A1.06,1.06,0,0,0,1262.6,448.335Z" transform="translate(-1053.459 -230.245)"/>
    </g>
    <g transform="translate(364.001 10.5)">
      <path id="Caminho_13-44" data-name="Caminho 13" d="M1262.6,448.335l4.778,8.276a1.06,1.06,0,0,1,0,1.06l-4.778,8.276a1.06,1.06,0,0,0,.918,1.59h9.557a1.06,1.06,0,0,0,.918-.53l5.39-9.336a1.06,1.06,0,0,0,0-1.06l-5.39-9.336a1.06,1.06,0,0,0-.918-.53h-9.557A1.06,1.06,0,0,0,1262.6,448.335Z" transform="translate(-1053.459 -230.245)"/>
    </g>
  </g>
</svg>
