<svg version="1.2" baseProfile="tiny-ps" xmlns="http://www.w3.org/2000/svg" viewBox="0 0 5190 2689" width="5190" height="2689">
	<title>bg-svg</title>
	<style>
		tspan { white-space:pre }
		.shp0 { fill: none } 
		.shp1 { fill: none;stroke: #707070 } 
	</style>
	<g id="bg">
		<g id="Grupo_68" style="opacity: 0.129">
			<g id="Elipse_24">
				<path id="Layer" class="shp0" d="M1600 2200C1268.2 2200 1000 1931.8 1000 1600C1000 1268.2 1268.2 1000 1600 1000C1931.8 1000 2200 1268.2 2200 1600C2200 1931.8 1931.8 2200 1600 2200Z" />
				<path id="Layer" class="shp1" d="M1600 2199.5C1268.48 2199.5 1000.5 1931.52 1000.5 1600C1000.5 1268.48 1268.48 1000.5 1600 1000.5C1931.52 1000.5 2199.5 1268.48 2199.5 1600C2199.5 1931.52 1931.52 2199.5 1600 2199.5Z" />
			</g>
			<g id="Elipse_25">
				<path id="Layer" class="shp0" d="M1600 2400C1157.6 2400 800 2042.4 800 1600C800 1157.6 1157.6 800 1600 800C2042.4 800 2400 1157.6 2400 1600C2400 2042.4 2042.4 2400 1600 2400Z" />
				<path id="Layer" class="shp1" d="M1600 2399.5C1157.88 2399.5 800.5 2042.12 800.5 1600C800.5 1157.88 1157.88 800.5 1600 800.5C2042.12 800.5 2399.5 1157.88 2399.5 1600C2399.5 2042.12 2042.12 2399.5 1600 2399.5Z" />
			</g>
			<g id="Elipse_26">
				<path id="Layer" class="shp0" d="M1600 2600C1047 2600 600 2153 600 1600C600 1047 1047 600 1600 600C2153 600 2600 1047 2600 1600C2600 2153 2153 2600 1600 2600Z" />
				<path id="Layer" class="shp1" d="M1600 2599.5C1047.28 2599.5 600.5 2152.72 600.5 1600C600.5 1047.28 1047.28 600.5 1600 600.5C2152.72 600.5 2599.5 1047.28 2599.5 1600C2599.5 2152.72 2152.72 2599.5 1600 2599.5Z" />
			</g>
			<g id="Elipse_27">
				<path id="Layer" class="shp0" d="M1600 2800C936.4 2800 400 2263.6 400 1600C400 936.4 936.4 400 1600 400C2263.6 400 2800 936.4 2800 1600C2800 2263.6 2263.6 2800 1600 2800Z" />
				<path id="Layer" class="shp1" d="M1600 2799.5C936.68 2799.5 400.5 2263.32 400.5 1600C400.5 936.68 936.68 400.5 1600 400.5C2263.32 400.5 2799.5 936.68 2799.5 1600C2799.5 2263.32 2263.32 2799.5 1600 2799.5Z" />
			</g>
			<g id="Elipse_28">
				<path id="Layer" class="shp0" d="M1600 3000C825.8 3000 200 2374.2 200 1600C200 825.8 825.8 200 1600 200C2374.2 200 3000 825.8 3000 1600C3000 2374.2 2374.2 3000 1600 3000Z" />
				<path id="Layer" class="shp1" d="M1600 2999.5C826.08 2999.5 200.5 2373.92 200.5 1600C200.5 826.08 826.08 200.5 1600 200.5C2373.92 200.5 2999.5 826.08 2999.5 1600C2999.5 2373.92 2373.92 2999.5 1600 2999.5Z" />
			</g>
			<g id="Elipse_29">
				<path id="Layer" class="shp0" d="M1600 3200C715.2 3200 0 2484.8 0 1600C0 715.2 715.2 0 1600 0C2484.8 0 3200 715.2 3200 1600C3200 2484.8 2484.8 3200 1600 3200Z" />
				<path id="Layer" class="shp1" d="M1600 3199.5C715.48 3199.5 0.5 2484.52 0.5 1600C0.5 715.48 715.48 0.5 1600 0.5C2484.52 0.5 3199.5 715.48 3199.5 1600C3199.5 2484.52 2484.52 3199.5 1600 3199.5Z" />
			</g>
		</g>
		<g id="Grupo_68-2" style="opacity: 0.129">
			<g id="Elipse_24-2">
				<path id="Layer" class="shp0" d="M3590 2200C3258.2 2200 2990 1931.8 2990 1600C2990 1268.2 3258.2 1000 3590 1000C3921.8 1000 4190 1268.2 4190 1600C4190 1931.8 3921.8 2200 3590 2200Z" />
				<path id="Layer" class="shp1" d="M3590 2199.5C3258.48 2199.5 2990.5 1931.52 2990.5 1600C2990.5 1268.48 3258.48 1000.5 3590 1000.5C3921.52 1000.5 4189.5 1268.48 4189.5 1600C4189.5 1931.52 3921.52 2199.5 3590 2199.5Z" />
			</g>
			<g id="Elipse_25-2">
				<path id="Layer" class="shp0" d="M3590 2400C3147.6 2400 2790 2042.4 2790 1600C2790 1157.6 3147.6 800 3590 800C4032.4 800 4390 1157.6 4390 1600C4390 2042.4 4032.4 2400 3590 2400Z" />
				<path id="Layer" class="shp1" d="M3590 2399.5C3147.88 2399.5 2790.5 2042.12 2790.5 1600C2790.5 1157.88 3147.88 800.5 3590 800.5C4032.12 800.5 4389.5 1157.88 4389.5 1600C4389.5 2042.12 4032.12 2399.5 3590 2399.5Z" />
			</g>
			<g id="Elipse_26-2">
				<path id="Layer" class="shp0" d="M3590 2600C3037 2600 2590 2153 2590 1600C2590 1047 3037 600 3590 600C4143 600 4590 1047 4590 1600C4590 2153 4143 2600 3590 2600Z" />
				<path id="Layer" class="shp1" d="M3590 2599.5C3037.28 2599.5 2590.5 2152.72 2590.5 1600C2590.5 1047.28 3037.28 600.5 3590 600.5C4142.72 600.5 4589.5 1047.28 4589.5 1600C4589.5 2152.72 4142.72 2599.5 3590 2599.5Z" />
			</g>
			<g id="Elipse_27-2">
				<path id="Layer" class="shp0" d="M3590 2800C2926.4 2800 2390 2263.6 2390 1600C2390 936.4 2926.4 400 3590 400C4253.6 400 4790 936.4 4790 1600C4790 2263.6 4253.6 2800 3590 2800Z" />
				<path id="Layer" class="shp1" d="M3590 2799.5C2926.68 2799.5 2390.5 2263.32 2390.5 1600C2390.5 936.68 2926.68 400.5 3590 400.5C4253.32 400.5 4789.5 936.68 4789.5 1600C4789.5 2263.32 4253.32 2799.5 3590 2799.5Z" />
			</g>
			<g id="Elipse_28-2">
				<path id="Layer" class="shp0" d="M3590 3000C2815.8 3000 2190 2374.2 2190 1600C2190 825.8 2815.8 200 3590 200C4364.2 200 4990 825.8 4990 1600C4990 2374.2 4364.2 3000 3590 3000Z" />
				<path id="Layer" class="shp1" d="M3590 2999.5C2816.08 2999.5 2190.5 2373.92 2190.5 1600C2190.5 826.08 2816.08 200.5 3590 200.5C4363.92 200.5 4989.5 826.08 4989.5 1600C4989.5 2373.92 4363.92 2999.5 3590 2999.5Z" />
			</g>
			<g id="Elipse_29-2">
				<path id="Layer" class="shp0" d="M3590 3200C2705.2 3200 1990 2484.8 1990 1600C1990 715.2 2705.2 0 3590 0C4474.8 0 5190 715.2 5190 1600C5190 2484.8 4474.8 3200 3590 3200Z" />
				<path id="Layer" class="shp1" d="M3590 3199.5C2705.48 3199.5 1990.5 2484.52 1990.5 1600C1990.5 715.48 2705.48 0.5 3590 0.5C4474.52 0.5 5189.5 715.48 5189.5 1600C5189.5 2484.52 4474.52 3199.5 3590 3199.5Z" />
			</g>
		</g>
	</g>
</svg>