<svg xmlns="http://www.w3.org/2000/svg" width="5190" height="3200" viewBox="0 0 5190 3200">
  <g id="bg" transform="translate(1611 -3439)">
    <g id="Grupo_68" data-name="Grupo 68" transform="translate(-1561 4066)" opacity="0.13">
      <g id="Elipse_24" data-name="Elipse 24" transform="translate(950 373)" fill="none" stroke="#707070" stroke-width="1">
        <circle cx="600" cy="600" r="600" stroke="none"/>
        <circle cx="600" cy="600" r="599.5" fill="none"/>
      </g>
      <g id="Elipse_25" data-name="Elipse 25" transform="translate(750 173)" fill="none" stroke="#707070" stroke-width="1">
        <circle cx="800" cy="800" r="800" stroke="none"/>
        <circle cx="800" cy="800" r="799.5" fill="none"/>
      </g>
      <g id="Elipse_26" data-name="Elipse 26" transform="translate(550 -27)" fill="none" stroke="#707070" stroke-width="1">
        <circle cx="1000" cy="1000" r="1000" stroke="none"/>
        <circle cx="1000" cy="1000" r="999.5" fill="none"/>
      </g>
      <g id="Elipse_27" data-name="Elipse 27" transform="translate(350 -227)" fill="none" stroke="#707070" stroke-width="1">
        <circle cx="1200" cy="1200" r="1200" stroke="none"/>
        <circle cx="1200" cy="1200" r="1199.5" fill="none"/>
      </g>
      <g id="Elipse_28" data-name="Elipse 28" transform="translate(150 -427)" fill="none" stroke="#707070" stroke-width="1">
        <circle cx="1400" cy="1400" r="1400" stroke="none"/>
        <circle cx="1400" cy="1400" r="1399.5" fill="none"/>
      </g>
      <g id="Elipse_29" data-name="Elipse 29" transform="translate(-50 -627)" fill="none" stroke="#707070" stroke-width="1">
        <circle cx="1600" cy="1600" r="1600" stroke="none"/>
        <circle cx="1600" cy="1600" r="1599.5" fill="none"/>
      </g>
    </g>
    <g id="Grupo_68-2" data-name="Grupo 68" transform="translate(429 4066)" opacity="0.13">
      <g id="Elipse_24-2" data-name="Elipse 24" transform="translate(950 373)" fill="none" stroke="#707070" stroke-width="1">
        <circle cx="600" cy="600" r="600" stroke="none"/>
        <circle cx="600" cy="600" r="599.5" fill="none"/>
      </g>
      <g id="Elipse_25-2" data-name="Elipse 25" transform="translate(750 173)" fill="none" stroke="#707070" stroke-width="1">
        <circle cx="800" cy="800" r="800" stroke="none"/>
        <circle cx="800" cy="800" r="799.5" fill="none"/>
      </g>
      <g id="Elipse_26-2" data-name="Elipse 26" transform="translate(550 -27)" fill="none" stroke="#707070" stroke-width="1">
        <circle cx="1000" cy="1000" r="1000" stroke="none"/>
        <circle cx="1000" cy="1000" r="999.5" fill="none"/>
      </g>
      <g id="Elipse_27-2" data-name="Elipse 27" transform="translate(350 -227)" fill="none" stroke="#707070" stroke-width="1">
        <circle cx="1200" cy="1200" r="1200" stroke="none"/>
        <circle cx="1200" cy="1200" r="1199.5" fill="none"/>
      </g>
      <g id="Elipse_28-2" data-name="Elipse 28" transform="translate(150 -427)" fill="none" stroke="#707070" stroke-width="1">
        <circle cx="1400" cy="1400" r="1400" stroke="none"/>
        <circle cx="1400" cy="1400" r="1399.5" fill="none"/>
      </g>
      <g id="Elipse_29-2" data-name="Elipse 29" transform="translate(-50 -627)" fill="none" stroke="#707070" stroke-width="1">
        <circle cx="1600" cy="1600" r="1600" stroke="none"/>
        <circle cx="1600" cy="1600" r="1599.5" fill="none"/>
      </g>
    </g>
  </g>
</svg>
