<svg xmlns="http://www.w3.org/2000/svg" xmlns:xlink="http://www.w3.org/1999/xlink" width="71" height="71" viewBox="0 0 71 71">
  <defs>
    <filter id="Elipse_2" x="0" y="0" width="71" height="71" filterUnits="userSpaceOnUse">
      <feOffset input="SourceAlpha"/>
      <feGaussianBlur stdDeviation="2" result="blur"/>
      <feFlood flood-opacity="0.18"/>
      <feComposite operator="in" in2="blur"/>
      <feComposite in="SourceGraphic"/>
    </filter>
  </defs>
  <g id="help" transform="translate(6 6)">
    <g transform="matrix(1, 0, 0, 1, -6, -6)" filter="url(#Elipse_2)">
      <circle id="Elipse_2-2" data-name="Elipse 2" cx="29.5" cy="29.5" r="29.5" transform="translate(6 6)" fill="#00e6b5"/>
    </g>
    <g id="Duotone_communication" data-name="Duotone / communication" transform="translate(17.764 17.764)">
      <g id="Group">
        <path id="Path" d="M14.727,12.623H4.208L0,16.83V2.1A2.1,2.1,0,0,1,2.1,0H14.727a2.1,2.1,0,0,1,2.1,2.1v8.415A2.1,2.1,0,0,1,14.727,12.623Z" fill="none" stroke="#fff" stroke-linecap="round" stroke-linejoin="round" stroke-miterlimit="10" stroke-width="2"/>
        <path id="Path-2" data-name="Path" d="M14.727,0a2.11,2.11,0,0,1,2.1,2.1V16.83l-4.208-4.208H2.1a2.11,2.11,0,0,1-2.1-2.1" transform="translate(6.311 6.311)" fill="none" stroke="#fff" stroke-linecap="round" stroke-linejoin="round" stroke-miterlimit="10" stroke-width="2"/>
      </g>
    </g>
  </g>
</svg>
