<svg xmlns="http://www.w3.org/2000/svg" width="102.771" height="75.206" viewBox="0 0 102.771 75.206">
  <g id="logo_rodape" transform="translate(-765.167 -1219.061)">
    <path id="Caminho_1" data-name="Caminho 1" d="M1106.149,1315.536l5.769-8.216h-5.5l-3.019,4.3Z" transform="translate(-243.98 -32.545)" fill="#00e6b5"/>
    <g id="Grupo_1" data-name="Grupo 1" transform="translate(765.167 1266.937)">
      <path id="Caminho_2" data-name="Caminho 2" d="M1075.276,1307.32l6.572,9.359-6.572,9.359h5.5l3.822-5.443,3.822,5.443h5.393l-13.143-18.719Z" transform="translate(-991.149 -1299.484)" fill="#2d3468"/>
      <path id="Caminho_3" data-name="Caminho 3" d="M841.6,1293.042h9.734c7.974,0,12.991,5.5,12.991,12.13s-5.017,12.13-12.991,12.13H841.6Zm9.509,19.767a7.638,7.638,0,1,0,0-15.274h-4.268v15.274Z" transform="translate(-841.601 -1290.346)" fill="#2d3468"/>
      <path id="Caminho_4" data-name="Caminho 4" d="M909.613,1317.127a9.612,9.612,0,0,1,9.7-9.734,9.359,9.359,0,0,1,9.1,9.659,16.538,16.538,0,0,1-.113,1.8H914.7a4.951,4.951,0,0,0,5.2,3.819,9.291,9.291,0,0,0,5.054-1.46l1.872,3.594a12.61,12.61,0,0,1-6.963,2.059C914.4,1326.861,909.613,1323.3,909.613,1317.127Zm14.077-1.61a4.522,4.522,0,0,0-4.53-3.931,4.694,4.694,0,0,0-4.53,3.931Z" transform="translate(-885.127 -1299.531)" fill="#2d3468"/>
      <path id="Caminho_5" data-name="Caminho 5" d="M966.29,1317.127c0-5.391,3.295-9.734,8.461-9.734a7.311,7.311,0,0,1,5.84,2.658v-2.284h4.9v18.719h-4.9v-2.246a7.23,7.23,0,0,1-5.84,2.621C969.585,1326.861,966.29,1322.518,966.29,1317.127Zm14.189,0c0-2.92-1.872-5.092-4.455-5.092-2.7,0-4.642,2.172-4.642,5.092,0,2.958,1.947,5.091,4.642,5.091C978.607,1322.218,980.479,1320.122,980.479,1317.127Z" transform="translate(-921.4 -1299.531)" fill="#2d3468"/>
      <path id="Caminho_6" data-name="Caminho 6" d="M1030.247,1292h5.017v24.634h-5.017Z" transform="translate(-962.331 -1289.682)" fill="#2d3468"/>
      <path id="Caminho_7" data-name="Caminho 7" d="M1053.437,1288.55a2.976,2.976,0,1,1,2.958,2.958A3,3,0,0,1,1053.437,1288.55Zm.487,5.241h5.017v18.719h-5.017Z" transform="translate(-977.172 -1285.555)" fill="#2d3468"/>
    </g>
    <path id="Caminho_8" data-name="Caminho 8" d="M718.135,1282.577l8.04-13.926a1.06,1.06,0,0,0-.918-1.59H713.9a3.83,3.83,0,0,0-3.256,1.733,3.689,3.689,0,0,0-.078,3.853l5.733,9.93A1.06,1.06,0,0,0,718.135,1282.577Z" transform="translate(89.139 -48)" fill="#2d3468"/>
    <path id="Caminho_9" data-name="Caminho 9" d="M744.211,1285.859l-9.788-16.926a3.732,3.732,0,0,0-3.1-1.852.049.049,0,0,0-.045.025l-16.612,28.725-.025-.014-3.958,6.844a3.854,3.854,0,0,0,.006,3.972,3.686,3.686,0,0,0,3.148,1.73H731.17a3.772,3.772,0,0,0,3.267-1.883l9.775-16.9A3.726,3.726,0,0,0,744.211,1285.859Zm-30.368,18.91a.125.125,0,0,1-.108-.187l3.93-6.8h0l14.6-25.25a.047.047,0,0,1,.082,0l1.5,2.593a.047.047,0,0,1,0,.047l-17.1,29.568a.048.048,0,0,1-.041.024Zm7.092-.072,14.966-25.878a.048.048,0,0,1,.083,0l1.5,2.593a.049.049,0,0,1,0,.048l-13.466,23.285a.048.048,0,0,1-.041.024h-3A.048.048,0,0,1,720.935,1304.7Zm20.145-16.893-9.774,16.9a.125.125,0,0,1-.108.063h-2.955a.048.048,0,0,1-.041-.072l11.332-19.6a.048.048,0,0,1,.082,0l1.464,2.53A.173.173,0,0,1,741.079,1287.805Z" transform="translate(89.088 -48.013)" fill="#00e6b5"/>
  </g>
</svg>
