<svg id="logo" xmlns="http://www.w3.org/2000/svg" width="181.801" height="50" viewBox="0 0 181.801 50">
  <path id="Caminho_1" data-name="Caminho 1" d="M1106.729,1317.269l6.986-9.949h-6.661l-3.656,5.206Z" transform="translate(-931.915 -1289.804)" fill="#00e6b5"/>
  <g id="Grupo_1" data-name="Grupo 1" transform="translate(57.348 8.024)">
    <path id="Caminho_2" data-name="Caminho 2" d="M1075.276,1307.32l7.958,11.334-7.958,11.334h6.661l4.628-6.591,4.628,6.591h6.531l-15.917-22.668Z" transform="translate(-973.4 -1297.831)" fill="#2d3468"/>
    <path id="Caminho_3" data-name="Caminho 3" d="M841.6,1293.042h11.788c9.656,0,15.731,6.665,15.731,14.689s-6.075,14.689-15.731,14.689H841.6Zm11.515,23.938c5.622,0,9.339-3.9,9.339-9.248a8.9,8.9,0,0,0-9.339-9.249h-5.168v18.5Z" transform="translate(-841.601 -1289.778)" fill="#2d3468"/>
    <path id="Caminho_4" data-name="Caminho 4" d="M909.613,1319.18a11.64,11.64,0,0,1,11.742-11.788c6.166,0,11.017,5.259,11.017,11.7a20.032,20.032,0,0,1-.136,2.176H915.778c.725,3.128,3.31,4.624,6.3,4.624a11.251,11.251,0,0,0,6.12-1.768l2.267,4.352a15.268,15.268,0,0,1-8.432,2.494C915.416,1330.968,909.613,1326.661,909.613,1319.18Zm17.046-1.95a5.477,5.477,0,0,0-5.486-4.76,5.684,5.684,0,0,0-5.486,4.76Z" transform="translate(-879.962 -1297.872)" fill="#2d3468"/>
    <path id="Caminho_5" data-name="Caminho 5" d="M966.29,1319.18c0-6.529,3.99-11.788,10.246-11.788a8.854,8.854,0,0,1,7.072,3.219v-2.766h5.939v22.668h-5.939v-2.72a8.755,8.755,0,0,1-7.072,3.173C970.28,1330.968,966.29,1325.708,966.29,1319.18Zm17.182,0c0-3.536-2.266-6.166-5.395-6.166-3.264,0-5.621,2.63-5.621,6.166,0,3.581,2.357,6.165,5.621,6.165C981.206,1325.346,983.472,1322.807,983.472,1319.18Z" transform="translate(-911.929 -1297.872)" fill="#2d3468"/>
    <path id="Caminho_6" data-name="Caminho 6" d="M1030.247,1292h6.075v29.831h-6.075Z" transform="translate(-948.003 -1289.192)" fill="#2d3468"/>
    <path id="Caminho_7" data-name="Caminho 7" d="M1053.437,1289.182a3.6,3.6,0,1,1,3.582,3.582A3.629,3.629,0,0,1,1053.437,1289.182Zm.589,6.347h6.075V1318.2h-6.075Z" transform="translate(-961.083 -1285.555)" fill="#2d3468"/>
  </g>
  <path id="Caminho_8" data-name="Caminho 8" d="M719.839,1285.851l9.737-16.864a1.284,1.284,0,0,0-1.112-1.926H714.709a4.638,4.638,0,0,0-3.943,2.1,4.467,4.467,0,0,0-.094,4.666l6.942,12.025A1.284,1.284,0,0,0,719.839,1285.851Z" transform="translate(-710.061 -1267.061)" fill="#2d3468"/>
  <path id="Caminho_9" data-name="Caminho 9" d="M751.4,1289.821l-11.853-20.5a4.52,4.52,0,0,0-3.748-2.242.059.059,0,0,0-.054.03L715.628,1301.9l-.03-.017-4.793,8.288a4.667,4.667,0,0,0,.008,4.81,4.463,4.463,0,0,0,3.812,2.095h20.982a4.569,4.569,0,0,0,3.956-2.28l11.838-20.469A4.512,4.512,0,0,0,751.4,1289.821Zm-36.775,22.9a.151.151,0,0,1-.131-.226l4.759-8.229h0l17.683-30.577a.057.057,0,0,1,.1,0l1.816,3.14a.057.057,0,0,1,0,.057l-20.707,35.806a.058.058,0,0,1-.05.029Zm8.588-.087,18.123-31.338a.058.058,0,0,1,.1,0l1.816,3.14a.059.059,0,0,1,0,.058l-16.307,28.2a.058.058,0,0,1-.05.029h-3.633A.058.058,0,0,1,723.212,1312.634Zm24.395-20.456-11.836,20.467a.152.152,0,0,1-.131.076h-3.578a.058.058,0,0,1-.05-.087l13.723-23.73a.058.058,0,0,1,.1,0l1.772,3.064A.21.21,0,0,1,747.607,1292.177Z" transform="translate(-710.106 -1267.073)" fill="#00e6b5"/>
</svg>
