<svg xmlns="http://www.w3.org/2000/svg" width="53.749" height="59.165" viewBox="0 0 53.749 59.165">
  <g id="pagamentos_icon" transform="translate(-548.8 -2043.185)">
    <path id="Path" d="M0,.5H2.708" transform="translate(562.133 2077.684)" fill="none" stroke="#5c46f9" stroke-linecap="round" stroke-linejoin="round" stroke-miterlimit="10" stroke-width="5"/>
    <path id="Path-2" data-name="Path" d="M0,.5H2.708" transform="translate(562.133 2088.517)" fill="none" stroke="#5c46f9" stroke-linecap="round" stroke-linejoin="round" stroke-miterlimit="10" stroke-width="5"/>
    <path id="Path-3" data-name="Path" d="M43.332,54.165H5.417A5.415,5.415,0,0,1,0,48.749V5.417A5.415,5.415,0,0,1,5.417,0H43.332a5.415,5.415,0,0,1,5.417,5.417V48.749A5.415,5.415,0,0,1,43.332,54.165Z" transform="translate(551.3 2045.685)" fill="none" stroke="#2d3468" stroke-linecap="round" stroke-linejoin="round" stroke-miterlimit="10" stroke-width="5"/>
    <path id="Path-4" data-name="Path" d="M0,.5H2.708" transform="translate(575.674 2077.684)" fill="none" stroke="#5c46f9" stroke-linecap="round" stroke-linejoin="round" stroke-miterlimit="10" stroke-width="5"/>
    <path id="Path-5" data-name="Path" d="M0,.5H2.708" transform="translate(575.674 2088.517)" fill="none" stroke="#5c46f9" stroke-linecap="round" stroke-linejoin="round" stroke-miterlimit="10" stroke-width="5"/>
    <path id="Path-6" data-name="Path" d="M.5,0V10.833" transform="translate(588.716 2078.184)" fill="none" stroke="#5c46f9" stroke-linecap="round" stroke-linejoin="round" stroke-miterlimit="10" stroke-width="5"/>
    <rect id="Rectangle" width="26.815" height="10.726" transform="translate(562.026 2056.947)" fill="none" stroke="#2d3468" stroke-linecap="round" stroke-linejoin="round" stroke-miterlimit="10" stroke-width="5"/>
  </g>
</svg>
