<svg xmlns="http://www.w3.org/2000/svg" xmlns:xlink="http://www.w3.org/1999/xlink" width="1723.564" height="131.5" viewBox="0 0 1723.564 131.5">
  <defs>
    <clipPath id="clip-path">
      <rect width="1723.564" height="131.5" fill="none"/>
    </clipPath>
  </defs>
  <g id="pre-footer" clip-path="url(#clip-path)">
    <g transform="translate(-185.999 -178.5)">
      <path id="Caminho_13" data-name="Caminho 13" d="M1262.6,448.335l4.778,8.276a1.06,1.06,0,0,1,0,1.06l-4.778,8.276a1.06,1.06,0,0,0,.918,1.59h9.557a1.06,1.06,0,0,0,.918-.53l5.39-9.336a1.06,1.06,0,0,0,0-1.06l-5.39-9.336a1.06,1.06,0,0,0-.918-.53h-9.557A1.06,1.06,0,0,0,1262.6,448.335Z" transform="translate(-1076.459 -230.245)" fill="#d9d9d9"/>
    </g>
    <g transform="translate(-130.999 -178.5)">
      <path id="Caminho_13-2" data-name="Caminho 13" d="M1262.6,448.335l4.778,8.276a1.06,1.06,0,0,1,0,1.06l-4.778,8.276a1.06,1.06,0,0,0,.918,1.59h9.557a1.06,1.06,0,0,0,.918-.53l5.39-9.336a1.06,1.06,0,0,0,0-1.06l-5.39-9.336a1.06,1.06,0,0,0-.918-.53h-9.557A1.06,1.06,0,0,0,1262.6,448.335Z" transform="translate(-1076.459 -230.245)" fill="#d9d9d9"/>
    </g>
    <g transform="translate(-75.999 -178.5)">
      <path id="Caminho_13-3" data-name="Caminho 13" d="M1262.6,448.335l4.778,8.276a1.06,1.06,0,0,1,0,1.06l-4.778,8.276a1.06,1.06,0,0,0,.918,1.59h9.557a1.06,1.06,0,0,0,.918-.53l5.39-9.336a1.06,1.06,0,0,0,0-1.06l-5.39-9.336a1.06,1.06,0,0,0-.918-.53h-9.557A1.06,1.06,0,0,0,1262.6,448.335Z" transform="translate(-1076.459 -230.245)" fill="#d9d9d9"/>
    </g>
    <g transform="translate(-20.999 -178.5)">
      <path id="Caminho_13-4" data-name="Caminho 13" d="M1262.6,448.335l4.778,8.276a1.06,1.06,0,0,1,0,1.06l-4.778,8.276a1.06,1.06,0,0,0,.918,1.59h9.557a1.06,1.06,0,0,0,.918-.53l5.39-9.336a1.06,1.06,0,0,0,0-1.06l-5.39-9.336a1.06,1.06,0,0,0-.918-.53h-9.557A1.06,1.06,0,0,0,1262.6,448.335Z" transform="translate(-1076.459 -230.245)" fill="#d9d9d9"/>
    </g>
    <g transform="translate(34.001 -178.5)">
      <path id="Caminho_13-5" data-name="Caminho 13" d="M1262.6,448.335l4.778,8.276a1.06,1.06,0,0,1,0,1.06l-4.778,8.276a1.06,1.06,0,0,0,.918,1.59h9.557a1.06,1.06,0,0,0,.918-.53l5.39-9.336a1.06,1.06,0,0,0,0-1.06l-5.39-9.336a1.06,1.06,0,0,0-.918-.53h-9.557A1.06,1.06,0,0,0,1262.6,448.335Z" transform="translate(-1076.459 -230.245)" fill="#d9d9d9"/>
    </g>
    <g transform="translate(89.001 -178.5)">
      <path id="Caminho_13-6" data-name="Caminho 13" d="M1262.6,448.335l4.778,8.276a1.06,1.06,0,0,1,0,1.06l-4.778,8.276a1.06,1.06,0,0,0,.918,1.59h9.557a1.06,1.06,0,0,0,.918-.53l5.39-9.336a1.06,1.06,0,0,0,0-1.06l-5.39-9.336a1.06,1.06,0,0,0-.918-.53h-9.557A1.06,1.06,0,0,0,1262.6,448.335Z" transform="translate(-1076.459 -230.245)" fill="#d9d9d9"/>
    </g>
    <g transform="translate(144.001 -178.5)">
      <path id="Caminho_13-7" data-name="Caminho 13" d="M1262.6,448.335l4.778,8.276a1.06,1.06,0,0,1,0,1.06l-4.778,8.276a1.06,1.06,0,0,0,.918,1.59h9.557a1.06,1.06,0,0,0,.918-.53l5.39-9.336a1.06,1.06,0,0,0,0-1.06l-5.39-9.336a1.06,1.06,0,0,0-.918-.53h-9.557A1.06,1.06,0,0,0,1262.6,448.335Z" transform="translate(-1076.459 -230.245)" fill="#d9d9d9"/>
    </g>
    <g transform="translate(199.001 -178.5)">
      <path id="Caminho_13-8" data-name="Caminho 13" d="M1262.6,448.335l4.778,8.276a1.06,1.06,0,0,1,0,1.06l-4.778,8.276a1.06,1.06,0,0,0,.918,1.59h9.557a1.06,1.06,0,0,0,.918-.53l5.39-9.336a1.06,1.06,0,0,0,0-1.06l-5.39-9.336a1.06,1.06,0,0,0-.918-.53h-9.557A1.06,1.06,0,0,0,1262.6,448.335Z" transform="translate(-1076.459 -230.245)" fill="#d9d9d9"/>
    </g>
    <g transform="translate(254.001 -178.5)">
      <path id="Caminho_13-9" data-name="Caminho 13" d="M1262.6,448.335l4.778,8.276a1.06,1.06,0,0,1,0,1.06l-4.778,8.276a1.06,1.06,0,0,0,.918,1.59h9.557a1.06,1.06,0,0,0,.918-.53l5.39-9.336a1.06,1.06,0,0,0,0-1.06l-5.39-9.336a1.06,1.06,0,0,0-.918-.53h-9.557A1.06,1.06,0,0,0,1262.6,448.335Z" transform="translate(-1076.459 -230.245)" fill="#d9d9d9"/>
    </g>
    <g transform="translate(309.001 -178.5)">
      <path id="Caminho_13-10" data-name="Caminho 13" d="M1262.6,448.335l4.778,8.276a1.06,1.06,0,0,1,0,1.06l-4.778,8.276a1.06,1.06,0,0,0,.918,1.59h9.557a1.06,1.06,0,0,0,.918-.53l5.39-9.336a1.06,1.06,0,0,0,0-1.06l-5.39-9.336a1.06,1.06,0,0,0-.918-.53h-9.557A1.06,1.06,0,0,0,1262.6,448.335Z" transform="translate(-1076.459 -230.245)" fill="#d9d9d9"/>
    </g>
    <g transform="translate(364.001 -178.5)">
      <path id="Caminho_13-11" data-name="Caminho 13" d="M1262.6,448.335l4.778,8.276a1.06,1.06,0,0,1,0,1.06l-4.778,8.276a1.06,1.06,0,0,0,.918,1.59h9.557a1.06,1.06,0,0,0,.918-.53l5.39-9.336a1.06,1.06,0,0,0,0-1.06l-5.39-9.336a1.06,1.06,0,0,0-.918-.53h-9.557A1.06,1.06,0,0,0,1262.6,448.335Z" transform="translate(-1076.459 -230.245)" fill="#d9d9d9"/>
    </g>
    <g transform="translate(419.001 -178.5)">
      <path id="Caminho_13-12" data-name="Caminho 13" d="M1262.6,448.335l4.778,8.276a1.06,1.06,0,0,1,0,1.06l-4.778,8.276a1.06,1.06,0,0,0,.918,1.59h9.557a1.06,1.06,0,0,0,.918-.53l5.39-9.336a1.06,1.06,0,0,0,0-1.06l-5.39-9.336a1.06,1.06,0,0,0-.918-.53h-9.557A1.06,1.06,0,0,0,1262.6,448.335Z" transform="translate(-1076.459 -230.245)" fill="#d9d9d9"/>
    </g>
    <g transform="translate(474.001 -178.5)">
      <path id="Caminho_13-13" data-name="Caminho 13" d="M1262.6,448.335l4.778,8.276a1.06,1.06,0,0,1,0,1.06l-4.778,8.276a1.06,1.06,0,0,0,.918,1.59h9.557a1.06,1.06,0,0,0,.918-.53l5.39-9.336a1.06,1.06,0,0,0,0-1.06l-5.39-9.336a1.06,1.06,0,0,0-.918-.53h-9.557A1.06,1.06,0,0,0,1262.6,448.335Z" transform="translate(-1076.459 -230.245)" fill="#d9d9d9"/>
    </g>
    <g transform="translate(529.001 -178.5)">
      <path id="Caminho_13-14" data-name="Caminho 13" d="M1262.6,448.335l4.778,8.276a1.06,1.06,0,0,1,0,1.06l-4.778,8.276a1.06,1.06,0,0,0,.918,1.59h9.557a1.06,1.06,0,0,0,.918-.53l5.39-9.336a1.06,1.06,0,0,0,0-1.06l-5.39-9.336a1.06,1.06,0,0,0-.918-.53h-9.557A1.06,1.06,0,0,0,1262.6,448.335Z" transform="translate(-1076.459 -230.245)" fill="#d9d9d9"/>
    </g>
    <g transform="translate(584.001 -178.5)">
      <path id="Caminho_13-15" data-name="Caminho 13" d="M1262.6,448.335l4.778,8.276a1.06,1.06,0,0,1,0,1.06l-4.778,8.276a1.06,1.06,0,0,0,.918,1.59h9.557a1.06,1.06,0,0,0,.918-.53l5.39-9.336a1.06,1.06,0,0,0,0-1.06l-5.39-9.336a1.06,1.06,0,0,0-.918-.53h-9.557A1.06,1.06,0,0,0,1262.6,448.335Z" transform="translate(-1076.459 -230.245)" fill="#d9d9d9"/>
    </g>
    <g transform="translate(639.001 -178.5)">
      <path id="Caminho_13-16" data-name="Caminho 13" d="M1262.6,448.335l4.778,8.276a1.06,1.06,0,0,1,0,1.06l-4.778,8.276a1.06,1.06,0,0,0,.918,1.59h9.557a1.06,1.06,0,0,0,.918-.53l5.39-9.336a1.06,1.06,0,0,0,0-1.06l-5.39-9.336a1.06,1.06,0,0,0-.918-.53h-9.557A1.06,1.06,0,0,0,1262.6,448.335Z" transform="translate(-1076.459 -230.245)" fill="#d9d9d9"/>
    </g>
    <g transform="translate(694.001 -178.5)">
      <path id="Caminho_13-17" data-name="Caminho 13" d="M1262.6,448.335l4.778,8.276a1.06,1.06,0,0,1,0,1.06l-4.778,8.276a1.06,1.06,0,0,0,.918,1.59h9.557a1.06,1.06,0,0,0,.918-.53l5.39-9.336a1.06,1.06,0,0,0,0-1.06l-5.39-9.336a1.06,1.06,0,0,0-.918-.53h-9.557A1.06,1.06,0,0,0,1262.6,448.335Z" transform="translate(-1076.459 -230.245)" fill="#d9d9d9"/>
    </g>
    <g transform="translate(749.001 -178.5)">
      <path id="Caminho_13-18" data-name="Caminho 13" d="M1262.6,448.335l4.778,8.276a1.06,1.06,0,0,1,0,1.06l-4.778,8.276a1.06,1.06,0,0,0,.918,1.59h9.557a1.06,1.06,0,0,0,.918-.53l5.39-9.336a1.06,1.06,0,0,0,0-1.06l-5.39-9.336a1.06,1.06,0,0,0-.918-.53h-9.557A1.06,1.06,0,0,0,1262.6,448.335Z" transform="translate(-1076.459 -230.245)" fill="#d9d9d9"/>
    </g>
    <g transform="translate(804.001 -178.5)">
      <path id="Caminho_13-19" data-name="Caminho 13" d="M1262.6,448.335l4.778,8.276a1.06,1.06,0,0,1,0,1.06l-4.778,8.276a1.06,1.06,0,0,0,.918,1.59h9.557a1.06,1.06,0,0,0,.918-.53l5.39-9.336a1.06,1.06,0,0,0,0-1.06l-5.39-9.336a1.06,1.06,0,0,0-.918-.53h-9.557A1.06,1.06,0,0,0,1262.6,448.335Z" transform="translate(-1076.459 -230.245)" fill="#d9d9d9"/>
    </g>
    <g transform="translate(859.001 -178.5)">
      <path id="Caminho_13-20" data-name="Caminho 13" d="M1262.6,448.335l4.778,8.276a1.06,1.06,0,0,1,0,1.06l-4.778,8.276a1.06,1.06,0,0,0,.918,1.59h9.557a1.06,1.06,0,0,0,.918-.53l5.39-9.336a1.06,1.06,0,0,0,0-1.06l-5.39-9.336a1.06,1.06,0,0,0-.918-.53h-9.557A1.06,1.06,0,0,0,1262.6,448.335Z" transform="translate(-1076.459 -230.245)" fill="#d9d9d9"/>
    </g>
    <g transform="translate(914.001 -178.5)">
      <path id="Caminho_13-21" data-name="Caminho 13" d="M1262.6,448.335l4.778,8.276a1.06,1.06,0,0,1,0,1.06l-4.778,8.276a1.06,1.06,0,0,0,.918,1.59h9.557a1.06,1.06,0,0,0,.918-.53l5.39-9.336a1.06,1.06,0,0,0,0-1.06l-5.39-9.336a1.06,1.06,0,0,0-.918-.53h-9.557A1.06,1.06,0,0,0,1262.6,448.335Z" transform="translate(-1076.459 -230.245)" fill="#d9d9d9"/>
    </g>
    <g transform="translate(969.001 -178.5)">
      <path id="Caminho_13-22" data-name="Caminho 13" d="M1262.6,448.335l4.778,8.276a1.06,1.06,0,0,1,0,1.06l-4.778,8.276a1.06,1.06,0,0,0,.918,1.59h9.557a1.06,1.06,0,0,0,.918-.53l5.39-9.336a1.06,1.06,0,0,0,0-1.06l-5.39-9.336a1.06,1.06,0,0,0-.918-.53h-9.557A1.06,1.06,0,0,0,1262.6,448.335Z" transform="translate(-1076.459 -230.245)" fill="#d9d9d9"/>
    </g>
    <g transform="translate(1024.001 -178.5)">
      <path id="Caminho_13-23" data-name="Caminho 13" d="M1262.6,448.335l4.778,8.276a1.06,1.06,0,0,1,0,1.06l-4.778,8.276a1.06,1.06,0,0,0,.918,1.59h9.557a1.06,1.06,0,0,0,.918-.53l5.39-9.336a1.06,1.06,0,0,0,0-1.06l-5.39-9.336a1.06,1.06,0,0,0-.918-.53h-9.557A1.06,1.06,0,0,0,1262.6,448.335Z" transform="translate(-1076.459 -230.245)" fill="#d9d9d9"/>
    </g>
    <g transform="translate(1079.001 -178.5)">
      <path id="Caminho_13-24" data-name="Caminho 13" d="M1262.6,448.335l4.778,8.276a1.06,1.06,0,0,1,0,1.06l-4.778,8.276a1.06,1.06,0,0,0,.918,1.59h9.557a1.06,1.06,0,0,0,.918-.53l5.39-9.336a1.06,1.06,0,0,0,0-1.06l-5.39-9.336a1.06,1.06,0,0,0-.918-.53h-9.557A1.06,1.06,0,0,0,1262.6,448.335Z" transform="translate(-1076.459 -230.245)" fill="#d9d9d9"/>
    </g>
    <g transform="translate(1134.001 -178.5)">
      <path id="Caminho_13-25" data-name="Caminho 13" d="M1262.6,448.335l4.778,8.276a1.06,1.06,0,0,1,0,1.06l-4.778,8.276a1.06,1.06,0,0,0,.918,1.59h9.557a1.06,1.06,0,0,0,.918-.53l5.39-9.336a1.06,1.06,0,0,0,0-1.06l-5.39-9.336a1.06,1.06,0,0,0-.918-.53h-9.557A1.06,1.06,0,0,0,1262.6,448.335Z" transform="translate(-1076.459 -230.245)" fill="#d9d9d9"/>
    </g>
    <g transform="translate(1189.001 -178.5)">
      <path id="Caminho_13-26" data-name="Caminho 13" d="M1262.6,448.335l4.778,8.276a1.06,1.06,0,0,1,0,1.06l-4.778,8.276a1.06,1.06,0,0,0,.918,1.59h9.557a1.06,1.06,0,0,0,.918-.53l5.39-9.336a1.06,1.06,0,0,0,0-1.06l-5.39-9.336a1.06,1.06,0,0,0-.918-.53h-9.557A1.06,1.06,0,0,0,1262.6,448.335Z" transform="translate(-1076.459 -230.245)" fill="#d9d9d9"/>
    </g>
    <g transform="translate(1244.001 -178.5)">
      <path id="Caminho_13-27" data-name="Caminho 13" d="M1262.6,448.335l4.778,8.276a1.06,1.06,0,0,1,0,1.06l-4.778,8.276a1.06,1.06,0,0,0,.918,1.59h9.557a1.06,1.06,0,0,0,.918-.53l5.39-9.336a1.06,1.06,0,0,0,0-1.06l-5.39-9.336a1.06,1.06,0,0,0-.918-.53h-9.557A1.06,1.06,0,0,0,1262.6,448.335Z" transform="translate(-1076.459 -230.245)" fill="#d9d9d9"/>
    </g>
    <g transform="translate(1299.001 -178.5)">
      <path id="Caminho_13-28" data-name="Caminho 13" d="M1262.6,448.335l4.778,8.276a1.06,1.06,0,0,1,0,1.06l-4.778,8.276a1.06,1.06,0,0,0,.918,1.59h9.557a1.06,1.06,0,0,0,.918-.53l5.39-9.336a1.06,1.06,0,0,0,0-1.06l-5.39-9.336a1.06,1.06,0,0,0-.918-.53h-9.557A1.06,1.06,0,0,0,1262.6,448.335Z" transform="translate(-1076.459 -230.245)" fill="#d9d9d9"/>
    </g>
    <g transform="translate(1354.001 -178.5)">
      <path id="Caminho_13-29" data-name="Caminho 13" d="M1262.6,448.335l4.778,8.276a1.06,1.06,0,0,1,0,1.06l-4.778,8.276a1.06,1.06,0,0,0,.918,1.59h9.557a1.06,1.06,0,0,0,.918-.53l5.39-9.336a1.06,1.06,0,0,0,0-1.06l-5.39-9.336a1.06,1.06,0,0,0-.918-.53h-9.557A1.06,1.06,0,0,0,1262.6,448.335Z" transform="translate(-1076.459 -230.245)" fill="#d9d9d9"/>
    </g>
    <g transform="translate(1409.001 -178.5)">
      <path id="Caminho_13-30" data-name="Caminho 13" d="M1262.6,448.335l4.778,8.276a1.06,1.06,0,0,1,0,1.06l-4.778,8.276a1.06,1.06,0,0,0,.918,1.59h9.557a1.06,1.06,0,0,0,.918-.53l5.39-9.336a1.06,1.06,0,0,0,0-1.06l-5.39-9.336a1.06,1.06,0,0,0-.918-.53h-9.557A1.06,1.06,0,0,0,1262.6,448.335Z" transform="translate(-1076.459 -230.245)" fill="#d9d9d9"/>
    </g>
    <g transform="translate(1464.001 -178.5)">
      <path id="Caminho_13-31" data-name="Caminho 13" d="M1262.6,448.335l4.778,8.276a1.06,1.06,0,0,1,0,1.06l-4.778,8.276a1.06,1.06,0,0,0,.918,1.59h9.557a1.06,1.06,0,0,0,.918-.53l5.39-9.336a1.06,1.06,0,0,0,0-1.06l-5.39-9.336a1.06,1.06,0,0,0-.918-.53h-9.557A1.06,1.06,0,0,0,1262.6,448.335Z" transform="translate(-1076.459 -230.245)" fill="#d9d9d9"/>
    </g>
    <g transform="translate(1519.001 -178.5)">
      <path id="Caminho_13-32" data-name="Caminho 13" d="M1262.6,448.335l4.778,8.276a1.06,1.06,0,0,1,0,1.06l-4.778,8.276a1.06,1.06,0,0,0,.918,1.59h9.557a1.06,1.06,0,0,0,.918-.53l5.39-9.336a1.06,1.06,0,0,0,0-1.06l-5.39-9.336a1.06,1.06,0,0,0-.918-.53h-9.557A1.06,1.06,0,0,0,1262.6,448.335Z" transform="translate(-1076.459 -230.245)" fill="#d9d9d9"/>
    </g>
    <g transform="translate(-185.999 -121.5)">
      <path id="Caminho_13-33" data-name="Caminho 13" d="M1262.6,448.335l4.778,8.276a1.06,1.06,0,0,1,0,1.06l-4.778,8.276a1.06,1.06,0,0,0,.918,1.59h9.557a1.06,1.06,0,0,0,.918-.53l5.39-9.336a1.06,1.06,0,0,0,0-1.06l-5.39-9.336a1.06,1.06,0,0,0-.918-.53h-9.557A1.06,1.06,0,0,0,1262.6,448.335Z" transform="translate(-1076.459 -230.245)" fill="#d9d9d9"/>
    </g>
    <g transform="translate(-130.999 -121.5)">
      <path id="Caminho_13-34" data-name="Caminho 13" d="M1262.6,448.335l4.778,8.276a1.06,1.06,0,0,1,0,1.06l-4.778,8.276a1.06,1.06,0,0,0,.918,1.59h9.557a1.06,1.06,0,0,0,.918-.53l5.39-9.336a1.06,1.06,0,0,0,0-1.06l-5.39-9.336a1.06,1.06,0,0,0-.918-.53h-9.557A1.06,1.06,0,0,0,1262.6,448.335Z" transform="translate(-1076.459 -230.245)" fill="#d9d9d9"/>
    </g>
    <g transform="translate(-75.999 -121.5)">
      <path id="Caminho_13-35" data-name="Caminho 13" d="M1262.6,448.335l4.778,8.276a1.06,1.06,0,0,1,0,1.06l-4.778,8.276a1.06,1.06,0,0,0,.918,1.59h9.557a1.06,1.06,0,0,0,.918-.53l5.39-9.336a1.06,1.06,0,0,0,0-1.06l-5.39-9.336a1.06,1.06,0,0,0-.918-.53h-9.557A1.06,1.06,0,0,0,1262.6,448.335Z" transform="translate(-1076.459 -230.245)" fill="#d9d9d9"/>
    </g>
    <g transform="translate(-20.999 -121.5)">
      <path id="Caminho_13-36" data-name="Caminho 13" d="M1262.6,448.335l4.778,8.276a1.06,1.06,0,0,1,0,1.06l-4.778,8.276a1.06,1.06,0,0,0,.918,1.59h9.557a1.06,1.06,0,0,0,.918-.53l5.39-9.336a1.06,1.06,0,0,0,0-1.06l-5.39-9.336a1.06,1.06,0,0,0-.918-.53h-9.557A1.06,1.06,0,0,0,1262.6,448.335Z" transform="translate(-1076.459 -230.245)" fill="#d9d9d9"/>
    </g>
    <g transform="translate(34.001 -121.5)">
      <path id="Caminho_13-37" data-name="Caminho 13" d="M1262.6,448.335l4.778,8.276a1.06,1.06,0,0,1,0,1.06l-4.778,8.276a1.06,1.06,0,0,0,.918,1.59h9.557a1.06,1.06,0,0,0,.918-.53l5.39-9.336a1.06,1.06,0,0,0,0-1.06l-5.39-9.336a1.06,1.06,0,0,0-.918-.53h-9.557A1.06,1.06,0,0,0,1262.6,448.335Z" transform="translate(-1076.459 -230.245)" fill="#d9d9d9"/>
    </g>
    <g transform="translate(89.001 -121.5)">
      <path id="Caminho_13-38" data-name="Caminho 13" d="M1262.6,448.335l4.778,8.276a1.06,1.06,0,0,1,0,1.06l-4.778,8.276a1.06,1.06,0,0,0,.918,1.59h9.557a1.06,1.06,0,0,0,.918-.53l5.39-9.336a1.06,1.06,0,0,0,0-1.06l-5.39-9.336a1.06,1.06,0,0,0-.918-.53h-9.557A1.06,1.06,0,0,0,1262.6,448.335Z" transform="translate(-1076.459 -230.245)" fill="#d9d9d9"/>
    </g>
    <g transform="translate(144.001 -121.5)">
      <path id="Caminho_13-39" data-name="Caminho 13" d="M1262.6,448.335l4.778,8.276a1.06,1.06,0,0,1,0,1.06l-4.778,8.276a1.06,1.06,0,0,0,.918,1.59h9.557a1.06,1.06,0,0,0,.918-.53l5.39-9.336a1.06,1.06,0,0,0,0-1.06l-5.39-9.336a1.06,1.06,0,0,0-.918-.53h-9.557A1.06,1.06,0,0,0,1262.6,448.335Z" transform="translate(-1076.459 -230.245)" fill="#d9d9d9"/>
    </g>
    <g transform="translate(199.001 -121.5)">
      <path id="Caminho_13-40" data-name="Caminho 13" d="M1262.6,448.335l4.778,8.276a1.06,1.06,0,0,1,0,1.06l-4.778,8.276a1.06,1.06,0,0,0,.918,1.59h9.557a1.06,1.06,0,0,0,.918-.53l5.39-9.336a1.06,1.06,0,0,0,0-1.06l-5.39-9.336a1.06,1.06,0,0,0-.918-.53h-9.557A1.06,1.06,0,0,0,1262.6,448.335Z" transform="translate(-1076.459 -230.245)" fill="#d9d9d9"/>
    </g>
    <g transform="translate(254.001 -121.5)">
      <path id="Caminho_13-41" data-name="Caminho 13" d="M1262.6,448.335l4.778,8.276a1.06,1.06,0,0,1,0,1.06l-4.778,8.276a1.06,1.06,0,0,0,.918,1.59h9.557a1.06,1.06,0,0,0,.918-.53l5.39-9.336a1.06,1.06,0,0,0,0-1.06l-5.39-9.336a1.06,1.06,0,0,0-.918-.53h-9.557A1.06,1.06,0,0,0,1262.6,448.335Z" transform="translate(-1076.459 -230.245)" fill="#d9d9d9"/>
    </g>
    <g transform="translate(309.001 -121.5)">
      <path id="Caminho_13-42" data-name="Caminho 13" d="M1262.6,448.335l4.778,8.276a1.06,1.06,0,0,1,0,1.06l-4.778,8.276a1.06,1.06,0,0,0,.918,1.59h9.557a1.06,1.06,0,0,0,.918-.53l5.39-9.336a1.06,1.06,0,0,0,0-1.06l-5.39-9.336a1.06,1.06,0,0,0-.918-.53h-9.557A1.06,1.06,0,0,0,1262.6,448.335Z" transform="translate(-1076.459 -230.245)" fill="#d9d9d9"/>
    </g>
    <g transform="translate(364.001 -121.5)">
      <path id="Caminho_13-43" data-name="Caminho 13" d="M1262.6,448.335l4.778,8.276a1.06,1.06,0,0,1,0,1.06l-4.778,8.276a1.06,1.06,0,0,0,.918,1.59h9.557a1.06,1.06,0,0,0,.918-.53l5.39-9.336a1.06,1.06,0,0,0,0-1.06l-5.39-9.336a1.06,1.06,0,0,0-.918-.53h-9.557A1.06,1.06,0,0,0,1262.6,448.335Z" transform="translate(-1076.459 -230.245)" fill="#d9d9d9"/>
    </g>
    <g transform="translate(419.001 -121.5)">
      <path id="Caminho_13-44" data-name="Caminho 13" d="M1262.6,448.335l4.778,8.276a1.06,1.06,0,0,1,0,1.06l-4.778,8.276a1.06,1.06,0,0,0,.918,1.59h9.557a1.06,1.06,0,0,0,.918-.53l5.39-9.336a1.06,1.06,0,0,0,0-1.06l-5.39-9.336a1.06,1.06,0,0,0-.918-.53h-9.557A1.06,1.06,0,0,0,1262.6,448.335Z" transform="translate(-1076.459 -230.245)" fill="#d9d9d9"/>
    </g>
    <g transform="translate(474.001 -121.5)">
      <path id="Caminho_13-45" data-name="Caminho 13" d="M1262.6,448.335l4.778,8.276a1.06,1.06,0,0,1,0,1.06l-4.778,8.276a1.06,1.06,0,0,0,.918,1.59h9.557a1.06,1.06,0,0,0,.918-.53l5.39-9.336a1.06,1.06,0,0,0,0-1.06l-5.39-9.336a1.06,1.06,0,0,0-.918-.53h-9.557A1.06,1.06,0,0,0,1262.6,448.335Z" transform="translate(-1076.459 -230.245)" fill="#d9d9d9"/>
    </g>
    <g transform="translate(529.001 -121.5)">
      <path id="Caminho_13-46" data-name="Caminho 13" d="M1262.6,448.335l4.778,8.276a1.06,1.06,0,0,1,0,1.06l-4.778,8.276a1.06,1.06,0,0,0,.918,1.59h9.557a1.06,1.06,0,0,0,.918-.53l5.39-9.336a1.06,1.06,0,0,0,0-1.06l-5.39-9.336a1.06,1.06,0,0,0-.918-.53h-9.557A1.06,1.06,0,0,0,1262.6,448.335Z" transform="translate(-1076.459 -230.245)" fill="#d9d9d9"/>
    </g>
    <g transform="translate(584.001 -121.5)">
      <path id="Caminho_13-47" data-name="Caminho 13" d="M1262.6,448.335l4.778,8.276a1.06,1.06,0,0,1,0,1.06l-4.778,8.276a1.06,1.06,0,0,0,.918,1.59h9.557a1.06,1.06,0,0,0,.918-.53l5.39-9.336a1.06,1.06,0,0,0,0-1.06l-5.39-9.336a1.06,1.06,0,0,0-.918-.53h-9.557A1.06,1.06,0,0,0,1262.6,448.335Z" transform="translate(-1076.459 -230.245)" fill="#d9d9d9"/>
    </g>
    <g transform="translate(639.001 -121.5)">
      <path id="Caminho_13-48" data-name="Caminho 13" d="M1262.6,448.335l4.778,8.276a1.06,1.06,0,0,1,0,1.06l-4.778,8.276a1.06,1.06,0,0,0,.918,1.59h9.557a1.06,1.06,0,0,0,.918-.53l5.39-9.336a1.06,1.06,0,0,0,0-1.06l-5.39-9.336a1.06,1.06,0,0,0-.918-.53h-9.557A1.06,1.06,0,0,0,1262.6,448.335Z" transform="translate(-1076.459 -230.245)" fill="#d9d9d9"/>
    </g>
    <g transform="translate(694.001 -121.5)">
      <path id="Caminho_13-49" data-name="Caminho 13" d="M1262.6,448.335l4.778,8.276a1.06,1.06,0,0,1,0,1.06l-4.778,8.276a1.06,1.06,0,0,0,.918,1.59h9.557a1.06,1.06,0,0,0,.918-.53l5.39-9.336a1.06,1.06,0,0,0,0-1.06l-5.39-9.336a1.06,1.06,0,0,0-.918-.53h-9.557A1.06,1.06,0,0,0,1262.6,448.335Z" transform="translate(-1076.459 -230.245)" fill="#d9d9d9"/>
    </g>
    <g transform="translate(749.001 -121.5)">
      <path id="Caminho_13-50" data-name="Caminho 13" d="M1262.6,448.335l4.778,8.276a1.06,1.06,0,0,1,0,1.06l-4.778,8.276a1.06,1.06,0,0,0,.918,1.59h9.557a1.06,1.06,0,0,0,.918-.53l5.39-9.336a1.06,1.06,0,0,0,0-1.06l-5.39-9.336a1.06,1.06,0,0,0-.918-.53h-9.557A1.06,1.06,0,0,0,1262.6,448.335Z" transform="translate(-1076.459 -230.245)" fill="#d9d9d9"/>
    </g>
    <g transform="translate(804.001 -121.5)">
      <path id="Caminho_13-51" data-name="Caminho 13" d="M1262.6,448.335l4.778,8.276a1.06,1.06,0,0,1,0,1.06l-4.778,8.276a1.06,1.06,0,0,0,.918,1.59h9.557a1.06,1.06,0,0,0,.918-.53l5.39-9.336a1.06,1.06,0,0,0,0-1.06l-5.39-9.336a1.06,1.06,0,0,0-.918-.53h-9.557A1.06,1.06,0,0,0,1262.6,448.335Z" transform="translate(-1076.459 -230.245)" fill="#d9d9d9"/>
    </g>
    <g transform="translate(859.001 -121.5)">
      <path id="Caminho_13-52" data-name="Caminho 13" d="M1262.6,448.335l4.778,8.276a1.06,1.06,0,0,1,0,1.06l-4.778,8.276a1.06,1.06,0,0,0,.918,1.59h9.557a1.06,1.06,0,0,0,.918-.53l5.39-9.336a1.06,1.06,0,0,0,0-1.06l-5.39-9.336a1.06,1.06,0,0,0-.918-.53h-9.557A1.06,1.06,0,0,0,1262.6,448.335Z" transform="translate(-1076.459 -230.245)" fill="#d9d9d9"/>
    </g>
    <g transform="translate(914.001 -121.5)">
      <path id="Caminho_13-53" data-name="Caminho 13" d="M1262.6,448.335l4.778,8.276a1.06,1.06,0,0,1,0,1.06l-4.778,8.276a1.06,1.06,0,0,0,.918,1.59h9.557a1.06,1.06,0,0,0,.918-.53l5.39-9.336a1.06,1.06,0,0,0,0-1.06l-5.39-9.336a1.06,1.06,0,0,0-.918-.53h-9.557A1.06,1.06,0,0,0,1262.6,448.335Z" transform="translate(-1076.459 -230.245)" fill="#d9d9d9"/>
    </g>
    <g transform="translate(969.001 -121.5)">
      <path id="Caminho_13-54" data-name="Caminho 13" d="M1262.6,448.335l4.778,8.276a1.06,1.06,0,0,1,0,1.06l-4.778,8.276a1.06,1.06,0,0,0,.918,1.59h9.557a1.06,1.06,0,0,0,.918-.53l5.39-9.336a1.06,1.06,0,0,0,0-1.06l-5.39-9.336a1.06,1.06,0,0,0-.918-.53h-9.557A1.06,1.06,0,0,0,1262.6,448.335Z" transform="translate(-1076.459 -230.245)" fill="#d9d9d9"/>
    </g>
    <g transform="translate(1024.001 -121.5)">
      <path id="Caminho_13-55" data-name="Caminho 13" d="M1262.6,448.335l4.778,8.276a1.06,1.06,0,0,1,0,1.06l-4.778,8.276a1.06,1.06,0,0,0,.918,1.59h9.557a1.06,1.06,0,0,0,.918-.53l5.39-9.336a1.06,1.06,0,0,0,0-1.06l-5.39-9.336a1.06,1.06,0,0,0-.918-.53h-9.557A1.06,1.06,0,0,0,1262.6,448.335Z" transform="translate(-1076.459 -230.245)" fill="#d9d9d9"/>
    </g>
    <g transform="translate(1079.001 -121.5)">
      <path id="Caminho_13-56" data-name="Caminho 13" d="M1262.6,448.335l4.778,8.276a1.06,1.06,0,0,1,0,1.06l-4.778,8.276a1.06,1.06,0,0,0,.918,1.59h9.557a1.06,1.06,0,0,0,.918-.53l5.39-9.336a1.06,1.06,0,0,0,0-1.06l-5.39-9.336a1.06,1.06,0,0,0-.918-.53h-9.557A1.06,1.06,0,0,0,1262.6,448.335Z" transform="translate(-1076.459 -230.245)" fill="#d9d9d9"/>
    </g>
    <g transform="translate(1134.001 -121.5)">
      <path id="Caminho_13-57" data-name="Caminho 13" d="M1262.6,448.335l4.778,8.276a1.06,1.06,0,0,1,0,1.06l-4.778,8.276a1.06,1.06,0,0,0,.918,1.59h9.557a1.06,1.06,0,0,0,.918-.53l5.39-9.336a1.06,1.06,0,0,0,0-1.06l-5.39-9.336a1.06,1.06,0,0,0-.918-.53h-9.557A1.06,1.06,0,0,0,1262.6,448.335Z" transform="translate(-1076.459 -230.245)" fill="#d9d9d9"/>
    </g>
    <g transform="translate(1189.001 -121.5)">
      <path id="Caminho_13-58" data-name="Caminho 13" d="M1262.6,448.335l4.778,8.276a1.06,1.06,0,0,1,0,1.06l-4.778,8.276a1.06,1.06,0,0,0,.918,1.59h9.557a1.06,1.06,0,0,0,.918-.53l5.39-9.336a1.06,1.06,0,0,0,0-1.06l-5.39-9.336a1.06,1.06,0,0,0-.918-.53h-9.557A1.06,1.06,0,0,0,1262.6,448.335Z" transform="translate(-1076.459 -230.245)" fill="#d9d9d9"/>
    </g>
    <g transform="translate(1244.001 -121.5)">
      <path id="Caminho_13-59" data-name="Caminho 13" d="M1262.6,448.335l4.778,8.276a1.06,1.06,0,0,1,0,1.06l-4.778,8.276a1.06,1.06,0,0,0,.918,1.59h9.557a1.06,1.06,0,0,0,.918-.53l5.39-9.336a1.06,1.06,0,0,0,0-1.06l-5.39-9.336a1.06,1.06,0,0,0-.918-.53h-9.557A1.06,1.06,0,0,0,1262.6,448.335Z" transform="translate(-1076.459 -230.245)" fill="#d9d9d9"/>
    </g>
    <g transform="translate(1299.001 -121.5)">
      <path id="Caminho_13-60" data-name="Caminho 13" d="M1262.6,448.335l4.778,8.276a1.06,1.06,0,0,1,0,1.06l-4.778,8.276a1.06,1.06,0,0,0,.918,1.59h9.557a1.06,1.06,0,0,0,.918-.53l5.39-9.336a1.06,1.06,0,0,0,0-1.06l-5.39-9.336a1.06,1.06,0,0,0-.918-.53h-9.557A1.06,1.06,0,0,0,1262.6,448.335Z" transform="translate(-1076.459 -230.245)" fill="#d9d9d9"/>
    </g>
    <g transform="translate(1354.001 -121.5)">
      <path id="Caminho_13-61" data-name="Caminho 13" d="M1262.6,448.335l4.778,8.276a1.06,1.06,0,0,1,0,1.06l-4.778,8.276a1.06,1.06,0,0,0,.918,1.59h9.557a1.06,1.06,0,0,0,.918-.53l5.39-9.336a1.06,1.06,0,0,0,0-1.06l-5.39-9.336a1.06,1.06,0,0,0-.918-.53h-9.557A1.06,1.06,0,0,0,1262.6,448.335Z" transform="translate(-1076.459 -230.245)" fill="#d9d9d9"/>
    </g>
    <g transform="translate(1409.001 -121.5)">
      <path id="Caminho_13-62" data-name="Caminho 13" d="M1262.6,448.335l4.778,8.276a1.06,1.06,0,0,1,0,1.06l-4.778,8.276a1.06,1.06,0,0,0,.918,1.59h9.557a1.06,1.06,0,0,0,.918-.53l5.39-9.336a1.06,1.06,0,0,0,0-1.06l-5.39-9.336a1.06,1.06,0,0,0-.918-.53h-9.557A1.06,1.06,0,0,0,1262.6,448.335Z" transform="translate(-1076.459 -230.245)" fill="#d9d9d9"/>
    </g>
    <g transform="translate(1464.001 -121.5)">
      <path id="Caminho_13-63" data-name="Caminho 13" d="M1262.6,448.335l4.778,8.276a1.06,1.06,0,0,1,0,1.06l-4.778,8.276a1.06,1.06,0,0,0,.918,1.59h9.557a1.06,1.06,0,0,0,.918-.53l5.39-9.336a1.06,1.06,0,0,0,0-1.06l-5.39-9.336a1.06,1.06,0,0,0-.918-.53h-9.557A1.06,1.06,0,0,0,1262.6,448.335Z" transform="translate(-1076.459 -230.245)" fill="#d9d9d9"/>
    </g>
    <g transform="translate(1519.001 -121.5)">
      <path id="Caminho_13-64" data-name="Caminho 13" d="M1262.6,448.335l4.778,8.276a1.06,1.06,0,0,1,0,1.06l-4.778,8.276a1.06,1.06,0,0,0,.918,1.59h9.557a1.06,1.06,0,0,0,.918-.53l5.39-9.336a1.06,1.06,0,0,0,0-1.06l-5.39-9.336a1.06,1.06,0,0,0-.918-.53h-9.557A1.06,1.06,0,0,0,1262.6,448.335Z" transform="translate(-1076.459 -230.245)" fill="#d9d9d9"/>
    </g>
  </g>
</svg>
