<svg id="service-icon" xmlns="http://www.w3.org/2000/svg" width="44.99" height="49.08" viewBox="0 0 44.99 49.08">
  <path id="Caminho_95" data-name="Caminho 95" d="M29.652,40.9H5.112A5.112,5.112,0,0,1,0,35.787V5.112A5.113,5.113,0,0,1,5.112,0h24.54a5.112,5.112,0,0,1,5.112,5.112V35.787A5.113,5.113,0,0,1,29.652,40.9ZM5.112,2.045A3.068,3.068,0,0,0,2.045,5.112V35.787a3.068,3.068,0,0,0,3.067,3.067h24.54a3.068,3.068,0,0,0,3.067-3.067V5.112a3.068,3.068,0,0,0-3.067-3.067Z" transform="translate(10.225 8.18)" fill="#fff"/>
  <path id="Caminho_96" data-name="Caminho 96" d="M7.157,42.945H5.112A5.112,5.112,0,0,1,0,37.832V5.112A5.113,5.113,0,0,1,5.112,0h24.54a5.112,5.112,0,0,1,5.112,5.112,1.022,1.022,0,1,1-2.045,0,3.068,3.068,0,0,0-3.067-3.067H5.112A3.068,3.068,0,0,0,2.045,5.112v32.72A3.068,3.068,0,0,0,5.112,40.9H7.157a1.022,1.022,0,1,1,0,2.045Z" fill="#fff"/>
  <path id="Caminho_97" data-name="Caminho 97" d="M17.382,2.045H1.022A1.022,1.022,0,1,1,1.022,0h16.36a1.022,1.022,0,1,1,0,2.045Z" transform="translate(18.405 32.72)" fill="#fff"/>
  <path id="Caminho_98" data-name="Caminho 98" d="M17.382,2.045H1.022A1.022,1.022,0,1,1,1.022,0h16.36a1.022,1.022,0,1,1,0,2.045Z" transform="translate(18.405 40.9)" fill="#fff"/>
  <path id="Caminho_99" data-name="Caminho 99" d="M17.382,2.045H1.022A1.022,1.022,0,1,1,1.022,0h16.36a1.022,1.022,0,1,1,0,2.045Z" transform="translate(18.405 24.54)" fill="#fff"/>
  <path id="Caminho_100" data-name="Caminho 100" d="M17.382,2.045H1.022A1.022,1.022,0,1,1,1.022,0h16.36a1.022,1.022,0,1,1,0,2.045Z" transform="translate(18.405 16.36)" fill="#fff"/>
</svg>
